<svg width="49" height="48" viewBox="0 0 49 48" fill="none" xmlns="http://www.w3.org/2000/svg">
<mask id="mask0_1334_91" style="mask-type:alpha" maskUnits="userSpaceOnUse" x="0" y="0" width="49" height="48">
<rect x="0.5" width="48" height="48" fill="#D9D9D9"/>
</mask>
<g mask="url(#mask0_1334_91)">
<path d="M23.8001 23.45C24.7668 22.2833 25.4834 21.0917 25.9501 19.875C26.4168 18.6583 26.6501 17.2415 26.6501 15.6245C26.6501 14.0078 26.4001 12.5662 25.9001 11.2995C25.4001 10.0332 24.7001 8.85 23.8001 7.75C26.6334 7.08333 29.0918 7.48333 31.1751 8.95C33.2584 10.4167 34.3001 12.6333 34.3001 15.6C34.3001 18.5667 33.2501 20.7917 31.1501 22.275C29.0501 23.7583 26.6001 24.15 23.8001 23.45ZM35.0501 41.5V35.946C35.0501 34.1897 34.5918 32.5178 33.6751 30.9305C32.7584 29.3435 31.2001 28 29.0001 26.9C34.9668 27.6667 39.1084 28.8 41.4251 30.3C43.7418 31.8 44.9001 33.6807 44.9001 35.942V41.5H35.0501ZM41.2001 25.7V20.65H36.1501V17H41.2001V11.95H44.8501V17H49.9001V20.65H44.8501V25.7H41.2001ZM15.6001 23.65C13.2181 23.65 11.2809 22.9038 9.7886 21.4115C8.29626 19.9192 7.5501 17.982 7.5501 15.6C7.5501 13.218 8.29626 11.2808 9.7886 9.7885C11.2809 8.29617 13.2181 7.55 15.6001 7.55C17.9821 7.55 19.9193 8.29617 21.4116 9.7885C22.9039 11.2808 23.6501 13.218 23.6501 15.6C23.6501 17.982 22.9039 19.9192 21.4116 21.4115C19.9193 22.9038 17.9821 23.65 15.6001 23.65ZM-0.899902 41.5V36.05C-0.899902 34.7463 -0.573402 33.5872 0.0795977 32.5725C0.732931 31.5582 1.60643 30.8007 2.7001 30.3C5.2001 29.2 7.43526 28.4 9.4056 27.9C11.3759 27.4 13.4393 27.15 15.5956 27.15C17.7519 27.15 19.8084 27.4 21.7651 27.9C23.7218 28.4 25.9501 29.2 28.4501 30.3C29.5438 30.8007 30.4256 31.5582 31.0956 32.5725C31.7653 33.5872 32.1001 34.7463 32.1001 36.05V41.5H-0.899902Z" fill="#F5F3F4"/>
</g>
</svg>
